<?xml version="1.0" standalone="no"?>
<!DOCTYPE svg PUBLIC "-//W3C//DTD SVG 20010904//EN"
 "http://www.w3.org/TR/2001/REC-SVG-20010904/DTD/svg10.dtd">
<svg version="1.0" xmlns="http://www.w3.org/2000/svg"
 width="700.000000pt" height="700.000000pt" viewBox="0 0 700.000000 700.000000"
 preserveAspectRatio="xMidYMid meet">
<metadata>
Created by potrace 1.14, written by Peter Selinger 2001-2017
</metadata>
<g transform="translate(0.000000,700.000000) scale(0.100000,-0.100000)"
fill="#000000" stroke="none">
<path d="M2268 6645 c-2 -2 -36 -6 -76 -9 -87 -8 -221 -45 -317 -88 -341 -153
-585 -468 -650 -836 -17 -100 -17 -286 1 -387 49 -278 208 -536 439 -710 73
-55 226 -134 315 -163 481 -153 985 14 1275 423 72 101 147 265 171 375 4 19
9 42 11 50 14 61 18 123 17 245 -2 155 -22 257 -77 393 -168 416 -560 691
-1009 707 -53 1 -98 2 -100 0z"/>
<path d="M4597 6644 c-1 -1 -31 -4 -67 -8 -171 -16 -375 -96 -527 -207 -79
-58 -200 -180 -255 -259 -84 -119 -162 -296 -182 -415 -3 -16 -10 -52 -15 -78
-9 -49 -7 -274 3 -334 96 -591 648 -1009 1241 -940 471 54 852 394 967 862 26
107 33 350 12 454 -52 266 -185 494 -384 662 -198 166 -442 258 -698 263 -51
1 -93 1 -95 0z"/>
<path d="M1100 4624 c-8 -1 -55 -8 -105 -14 -358 -48 -677 -286 -839 -624 -77
-160 -106 -278 -111 -457 -4 -135 15 -262 56 -388 105 -319 376 -593 693 -701
473 -161 980 -6 1277 390 178 238 257 567 205 860 -73 414 -360 744 -762 880
-46 16 -84 27 -84 25 0 -3 -11 0 -24 4 -40 16 -254 33 -306 25z"/>
<path d="M5758 4625 c-2 -2 -29 -5 -61 -9 -293 -31 -584 -201 -772 -451 -102
-136 -183 -330 -201 -480 -4 -27 -8 -53 -11 -58 -10 -18 -2 -237 13 -321 60
-349 285 -652 603 -811 611 -307 1351 -1 1571 650 15 44 27 82 28 85 1 10 15
86 19 105 11 50 10 259 -3 331 -23 142 -40 196 -94 311 -56 120 -120 212 -215
309 -206 211 -476 329 -772 338 -57 1 -104 2 -105 1z"/>
<path d="M2235 2603 c-297 -44 -487 -131 -673 -307 -229 -217 -350 -499 -350
-816 0 -249 74 -475 216 -666 330 -441 908 -584 1397 -345 270 132 476 365
573 648 20 57 27 83 47 178 14 63 13 294 -2 372 -68 371 -298 672 -633 831
-86 40 -119 52 -220 77 -98 24 -283 38 -355 28z"/>
<path d="M4597 2604 c-1 -1 -32 -5 -69 -8 -37 -4 -108 -18 -158 -32 -387 -103
-696 -417 -794 -809 -26 -105 -28 -118 -31 -252 -5 -246 54 -449 193 -658 44
-66 232 -265 250 -265 5 0 22 -11 38 -25 16 -14 79 -50 139 -80 441 -219 958
-133 1302 217 156 158 256 346 303 568 19 92 25 302 10 380 -4 25 -11 62 -14
82 -9 60 -44 156 -93 257 -147 301 -438 529 -767 601 -78 17 -297 34 -309 24z"/>
</g>
</svg>
